<?xml version="1.0" encoding="UTF-8"?>
<svg id="Calque_1" xmlns="http://www.w3.org/2000/svg" version="1.1" viewBox="0 0 539.8 440.8">
  <!-- Generator: Adobe Illustrator 29.2.1, SVG Export Plug-In . SVG Version: 2.1.0 Build 116)  -->
  <defs>
    <style>
      .st0 {
        fill: #fff;
      }
    </style>
  </defs>
  <path class="st0" d="M322.5,170.6l-3.9,2.6c-.8,2,.9,4.2.8,5.9-.2,4-8.8,5.2,5.8,8.1,5,1,18.3,3.2,22.8,3.3,3.2,0,4.8-1.8,6.9-1.9,19.2-.7,32.8-5.5,51.1-7.1,4.9-.4,10.1.4,15,0,36.1-2.9,81.3-10.9,107.5,20.5l-2.1,1c-.3,1.5,5.2,9,6.6,10.5.9.9,2.2.3,3,.9,4.2,3.6,4.1,17.2,3.5,22.6-.7,5.9-12,31.5-15.3,37.7-7.2,13.5-11.9,15-21.2,24.8-4.2,4.4-8.7,14.1-13.9,17.1-1.3.8-2.8-.2-3.5.4-.7.5-2.6,5.2-4,7-10.7,13.4-58.8,52.1-74.1,60.9-5.7,3.3-11.9,5.2-17.6,8.4-37.2,21.1-110.1,70.9-137.2,10.5-10.2-22.8-4.1-42.8,9-62.7,2.4-3.6,7.1-5.9,7.4-10.7-27.6-16.7-58.4-38.6-90.1-45.9-11-2.5-14-5.4-18.9,6-10.6,24.2-13.4,51.9-21.8,77.2-1.2,3.7-3.8,7-5,11-3.8,11.6-6,27.1-10.2,37.8-2.7,6.8-13.6,13.9-6.5,22.5-5.3,3.7-14.3,1.1-17.2-4.8-3.7-7.6-1.7-37.5-.8-47.2,2.9-29.6,13-57.7,19-86.5-17.5,2-32.2,10.7-49.8,13.7-22,3.8-44,4.8-61.7-10.7-7.7-6.8-8.6-11.8.5-18.4,10-7.2,54.1-16.1,67.6-17.4,10.8-1,47.3.2,53.9-7,2.7-2.9,2.6-9.9,3.9-14.1,14.9-48.9,35.9-102.4,55-150,2.4-6,9.2-21.9,12.3-26.7,4.3-6.7,11.9-7.2,18.8-4.4-.6,4.6,2.9,9,3.4,12.7.9,6.6-5,19.9-6.7,27.2-2.4,9.9-2.8,16.9-6.5,27.5-2.6,7.3-11.5,23.9-12.4,29.7-.4,2.7,2,4.2,1.4,8.3-1.3,9.6-9.8,25.8-13.1,36-2.4,7.6-4.1,15.8-6.5,23.5s-7.4,18.6-8.5,25.5c-.1.9-1.1,2.5.8,2.7,4.1.6,31.9-19.8,37.6-23.4,9.5-6,19.3-10.8,28.6-17.4,14.5-10.1,26.9-22.7,41.8-32.2l-1.5,4.5,2,.5c.7-5.9,15.4-11.6,15-16.4-.2-2.4-3.2-8.7-3.8-12.3-1.4-8.5-1.3-16,2.7-23.8,3-5.8,8.4-9.8,11.5-14.5,1.4-2.2,1.7-5,3-7,18.1-27.3,51.5-57,77.1-77.9,9.9-8.1,23.7-16.4,32.5-24.5,2-1.9,3.7-3.7,4-6.5,6.2,2.6,11.6-3.6,17.7-5.8,9.7-3.4,16.9-1.7,26,2.6,22.8,10.9,43.9,38.2,34.1,64.4-6.4,17.2-29.9,8.9-37.8-2.8-4.4-6.5,4.9-14.8,5.9-23.1,2.1-17.7-3.9-22.4-19.9-14.9-16.9,7.8-16.5,19.5-24.4,34.6-17.2,32.4-40.7,59.4-67,84-6.4,6-13.2,16.9-18,21-2.3,2-14.8,9.3-14.6,3h0,0ZM313.5,152.6c14.2-12.1,26-26.4,38.5-40,9-9.8,21.7-18.8,25.5-32-9.9,6.2-15.8,16-23.5,24-14.3,14.9-32.2,28.7-40.5,48h0ZM332.5,146.6c-.8-.7-4.5,2.3-5.5,3-3.9,3.1-14.6,12.3-17.1,15.9-1.2,1.8-1.8,2.7-1.4,5.1,10-5.8,17.1-15,24-24h0ZM186.5,261.6c8.3-3.8,16.2-8.8,23.9-13.6,24.6-15.3,51.4-34.8,73.6-53.4,1.8-1.5,13.5-11.6,13.5-12.5,0-.5-2.1-2.4-3-1l-40.1,33.9c-11.2,3.5-16.7,11.5-25,18-13,10.3-31,16.6-42.9,28.6ZM462.2,183.7c-4.1,1.1-2.3,6.9.8,6.9,5,0,4-8.2-.8-6.9ZM468.8,184.8c-1.4,1.3-1.9,4.6.2,5.6,5.6-4.2,12.6,1.6,16.5-3.4-2.3-3.7-14.2-4.8-16.7-2.2h0ZM453.5,184.6c-1.2-.9-4.9,1.6-6.6,1.7-4.4.3-12.8-5.6-14.4,2.3l-6.5-2.6c-1.5,1.8-9.5.2-9.5,2.1.1,3.4,11.1,1.3,12.3,1.6,1.8.5,3.5,4.3,6.4,4.6,1.9.2,4.4-1.8,6.9-1.8s4.3,2,6.8,2.1c1.5-2.3,8.6-7.1,4.6-10h0ZM141.6,247.6c8.6-8.1,7.6-21.2,14-30.5l8-30.5-7,14.5c-4.1,15.7-12.3,30.7-15,46.5h0ZM407.2,187.8c-1.6.1-3.5,2.1-4.6,3.3,1.3,5.1,6.6,1.3,9-1-1-1.2-2.7-2.4-4.3-2.3h0ZM354.5,404.6c-2.1.3-3.2-1.9-5.3-1.8-4.8.3-21.7,9.5-26.2,12.7-1.6,1.1-7.2,3.9-4,6,15-8.2,31.1-10.6,46.2-18.8,14.8-8,36-20.7,49.6-30.4,16.2-11.4,29.8-26.7,46.7-37.3l-2.5-2.5c-6.6,3-24.2,25.4-30.7,23.9-1-.2-1.9-1.8-3.3-1.8-.7,0-8,4.9-6.3-1.3.6-2.4,26.9-20.5,31.4-24.6,10.8-9.9,23.9-26.4,34-38,19.5-22.4,20.5-26,29-54,2.5-8.1,9.2-19.1,7.5-27.5-1-5.3-19.8-11-24.8-11.3-4.1-.2-7.6,1.9-11.7,1.9-5.2,0-12.8-2.2-18-2.1-10.1.2-25.4,1.9-35.9,3.2-38.5,4.6-78.4,18.6-115-1.4-3-1.6-6.8-6.1-10-5.6-1,.2-18.5,8.1-19.3,8.8-.5.4-1,.8-1,1.5l1.6,5.5-7.3-1.9c-5.9,4.4-6.8,11-15.8,10.3l-1,2c5.8,7.3-6.1,7.5-10.3,10.6-2,1.5-2.6,4-5.3,5.7-3,2-6.4,2-9.4,3.6-15.2,8.2-29.6,16.7-44,26-3.9,2.5-8.5,3.8-11.9,7.1,7.7,8.4,20.1,9,30.2,12.7,23.1,8.6,43.2,24.6,66.1,33.6,4.3-4.4,8-9.5,12.7-13.4,8.4-7.1,11.8-10.7,19.4-18.1,6-5.8,28.3-22.8,35.7-27.8,8.4-5.7,31.1-18.3,40.2-21.8,1.5-.6,2.4-2.3,3.5-2.6,2.7-.8,4.2,2.9,4.8,2.9.7,0,8.1-9,10.8-10.2,3.2-1.4,8-1.3,11.5-2.5,2.2-.7,13.3-6.1,14.2-5.3-3.2,9.7-14.1,11.1-22,15.5-14.5,8-62.2,30.7-70,41-5.7,7.5,1.7,10.5-.4,13.5-4.4,4.4-10.3,0-12.9.2-4.5.3-16.9,13.1-15.5,18.1.9,3.3,8.8,4.9-1.5,8.6-2.3-.5-3.3-9.1-5.6-6.9s.8,10.1,0,11l-4.5-1.8-5.5,6.4c-.4,2,.4,1.2,1.3,1.7,2.8,1.6,5.9,2.6,8.6,4.4,4.5,3,18.8,14.2,22.1,17.9,2.2,2.4,3.1,6.3,5.7,8.6,5.4,4.7,17.7,7.4,22.5,11.9,1.1,1,2.1,2.5,1.3,4-1.5,2.5-8.4,2.2-11.1,2-22.7-1.7-39.4-23.1-57-35-1.6,0-4,11.4-5,14-3.3,8.4-10.6,21.2-19.5,24-.3,3.2,3.6,2.5,4.1,5.5.8,5.2-4.4,7.5-.2,16.2,6.5,13.6,24.1,8.3,36,4.6,13.4-4.2,32.2-16.6,44.7-18.3,3.2-.4-.5,2.7-.5,4,4.3.4,6.8-4.1,7.1-7.9,5.3,1.6,14.2-3,17.9-6.6,1.9-1.8,1.7-3.6,2.3-4.2.6-.6,3.2-.6,4.7-1.8,17.9-13.7,32.1-26,52-37,5.6-3.1,8.4-9.1,14.1-11.4,2.4,2.4-16,17.6-18.1,19.4-7.3,6-15.8,11.9-23.6,17.4-6,4.3-47.7,30.9-48.2,33.8-.2,1.4,1.5,2.7,1.5,3.9,0,1.7-3.3,4.4-.7,7.5h0ZM251.5,211.6c-8.3-.4-13,8-18.5,12-1.5,1.1-3.6,1.4-5.4,2.6-1.3.8-4.6,2.5-4.1,4.4l5.3-2.2,22.7-16.8h0ZM522.5,245.6c.7-4.8,2.6-10.2-1.5-14-1.8,0-4,12.3-5,15-1.7,4.6-13.5,23.3-12.1,26l3.6,3.4-5,9.5c10.6-12,21.2-25.8,24-42l-4,2h0ZM195.5,249.6c-7.8,3.3-17.1,7.7-23.9,12.6-1.6,1.1-4.4,1.9-4.1,4.4,9.9-3.9,20.2-9.7,28-17h0ZM185.5,262.6c-2.7-1.2-14.8,5-15,6.5-.3,3.6,9.5-2.2,10.3-2.7,1.3-.8,4-2.5,4.7-3.8ZM112.5,289.6c3.1-.4,11.9-6.1,11-9.5-2.2-2.3-6.3-2.4-9.4-2.6-21.4-1.6-72.6,2.9-90.5,14.6-3.1,2.1-6.3,4.5-8,7.9,1.5,1.6,3.7,2.5,5.7,3.2,17.9,6,35.3-2.5,51.8-2.8,3,0,4.4,1.9,5.8,1.9,2.7-.1,7-5,9.4-5.6,4.1-1.1,10.2-.2,14.8-2.2l-6.5,4c0,1.7-.6,2.1,1.4,1.9,1.8-.2,23.8-6.3,19.6-9.9l-5-1h0ZM500.5,288.6l-30.5,31c-1,1.9-9.3,10.3-7.5,12,10,0,13.6-12.2,19-18.5,5.5-6.3,11.3-11.1,16.4-18.6,1.2-1.8,3-3.4,2.6-5.9h0ZM107.5,390.6c-.6-4.5,2.2-8.3,2.9-12.6.8-4.7.6-10.5,1.5-15.5,4.1-21.9,17.3-42.1,16.6-64.9-2.4.9-3.1,3.4-4,5.5-4,9.7-8.9,31.1-11.7,42.3-3.6,14.3-5.4,29.1-7.2,43.8-.2,2,.2,1.4,1.9,1.4h0ZM467.5,318.6c1.7,1.8,9.9-9.1,5.5-9-1.4,1-6.4,8-5.5,9ZM117.5,387.6c6.7,0,6.5-7,5-12l-5,12ZM310.5,411.6c.4,6.1,7.7-.6,10.8-1.7,4.2-1.5,8.8-2,13.2-3.8,1.3-.5,14.5-7,12-9.5-13.2,2.6-22.7,13.1-36,15h0Z"/>
  <path class="st0" d="M417.5,354.6c.6,8.5-11.2,9-14.4,14-1.8,2.7-1.1,8.5-2.5,9.5-6.7-.5-9.9-.8-15.6,3.4-2.5,1.9-6.3,7.9-7.5,8.5-.9.4-3.6-.2-5.6.3-5,1.3-9.5,3.7-14.4,5.2,14.2-14.4,35.8-20,51-33.5,2.7-2.4,4.1-7.6,9-7.5h0,0Z"/>
  <path class="st0" d="M469.5,298.6c1.2,1.1-11.3,13.8-15,12l15-12Z"/>
</svg>