<?xml version="1.0" encoding="UTF-8"?>
<svg id="Calque_1" data-name="Calque 1" xmlns="http://www.w3.org/2000/svg" viewBox="0 0 539.84 440.83">
  <path d="M322.47,170.6l-3.85,2.65c-.84,2.03.89,4.25.82,5.91-.16,4.01-8.78,5.21,5.84,8.15,4.95,1,18.26,3.25,22.79,3.31,3.25.04,4.78-1.83,6.88-1.91,19.17-.73,32.77-5.52,51.06-7.12,4.88-.43,10.09.38,14.98-.02,36.14-2.94,81.27-10.87,107.52,20.53l-2.06.99c-.26,1.53,5.2,9.04,6.61,10.48.88.89,2.21.31,2.96.95,4.24,3.61,4.09,17.22,3.48,22.57-.67,5.9-11.96,31.45-15.29,37.71-7.16,13.47-11.9,15.04-21.25,24.75-4.2,4.36-8.73,14.11-13.93,17.12-1.34.78-2.8-.17-3.52.37-.67.5-2.61,5.24-4.03,7.02-10.7,13.41-58.77,52.1-74.06,60.94-5.74,3.32-11.93,5.2-17.59,8.41-37.18,21.09-110.08,70.88-137.19,10.53-10.24-22.81-4.13-42.83,9.02-62.69,2.35-3.56,7.07-5.87,7.4-10.69-27.55-16.68-58.4-38.56-90.13-45.9-10.96-2.53-13.96-5.42-18.91,5.95-10.55,24.23-13.43,51.91-21.76,77.24-1.21,3.69-3.76,7.04-5.04,10.96-3.78,11.56-6.03,27.08-10.23,37.77-2.67,6.81-13.64,13.85-6.51,22.51-5.27,3.74-14.32,1.14-17.19-4.79-3.68-7.6-1.73-37.47-.78-47.2,2.88-29.6,13.03-57.69,18.99-86.51-17.51,1.98-32.23,10.69-49.79,13.71-21.96,3.78-43.98,4.84-61.68-10.74-7.71-6.79-8.59-11.77.53-18.41,9.96-7.25,54.09-16.14,67.56-17.44,10.78-1.04,47.32.21,53.95-7.05,2.67-2.93,2.65-9.85,3.93-14.07,14.88-48.87,35.87-102.44,55.01-149.99,2.4-5.97,9.22-21.94,12.29-26.71,4.29-6.66,11.92-7.19,18.76-4.37-.57,4.57,2.91,9.04,3.4,12.65.89,6.63-4.97,19.94-6.71,27.17-2.38,9.95-2.75,16.86-6.51,27.49-2.59,7.31-11.51,23.89-12.35,29.73-.39,2.74,1.96,4.18,1.41,8.26-1.32,9.64-9.77,25.8-13.06,36-2.44,7.56-4.15,15.81-6.47,23.53s-7.37,18.57-8.53,25.5c-.14.86-1.14,2.46.78,2.74,4.07.59,31.92-19.84,37.56-23.42,9.49-6.02,19.29-10.81,28.64-17.36,14.48-10.15,26.94-22.66,41.78-32.22l-1.52,4.48,2,.51c.74-5.92,15.35-11.64,15.03-16.4-.16-2.43-3.16-8.73-3.76-12.34-1.42-8.53-1.3-16.04,2.73-23.77,3-5.75,8.43-9.84,11.48-14.52,1.44-2.21,1.68-5,3-7,18.09-27.34,51.48-57.03,77.07-77.93,9.88-8.07,23.7-16.35,32.49-24.51,1.99-1.85,3.7-3.68,4.02-6.51,6.19,2.55,11.62-3.64,17.68-5.78,9.67-3.41,16.9-1.7,25.95,2.6,22.84,10.85,43.94,38.2,34.1,64.45-6.43,17.17-29.94,8.9-37.78-2.77-4.39-6.54,4.89-14.84,5.89-23.12,2.15-17.72-3.87-22.37-19.93-14.93-16.94,7.85-16.47,19.53-24.44,34.56-17.19,32.42-40.67,59.38-67.02,83.98-6.43,6-13.19,16.93-17.98,21.02-2.29,1.96-14.77,9.29-14.56,3ZM313.53,152.58c14.16-12.08,26-26.36,38.48-40.01,8.96-9.8,21.68-18.83,25.5-31.99-9.85,6.23-15.79,16-23.48,24.01-14.31,14.93-32.16,28.73-40.5,47.99ZM332.52,146.6c-.83-.73-4.54,2.28-5.47,3.01-3.9,3.07-14.63,12.27-17.08,15.92-1.21,1.8-1.84,2.69-1.43,5.06,9.97-5.82,17.09-15.01,23.99-23.99ZM186.52,261.58c8.26-3.84,16.19-8.77,23.92-13.57,24.57-15.26,51.44-34.81,73.56-53.44,1.76-1.48,13.47-11.55,13.51-12.47.02-.47-2.09-2.36-3-1.02l-40.07,33.93c-11.18,3.46-16.7,11.47-25,18-13.04,10.27-30.96,16.56-42.92,28.57ZM462.22,183.69c-4.08,1.06-2.3,6.93.79,6.94,4.96.03,4.02-8.19-.79-6.94ZM468.76,184.83c-1.35,1.34-1.9,4.64.22,5.64,5.63-4.17,12.65,1.62,16.51-3.38-2.3-3.72-14.16-4.82-16.73-2.25ZM453.45,184.63c-1.18-.85-4.94,1.55-6.57,1.66-4.36.28-12.76-5.65-14.38,2.3l-6.48-2.57c-1.49,1.78-9.54.23-9.48,2.07.12,3.4,11.12,1.34,12.26,1.63,1.82.47,3.54,4.34,6.36,4.63,1.94.2,4.38-1.83,6.88-1.81s4.3,2.03,6.83,2.13c1.55-2.27,8.65-7.11,4.58-10.04ZM141.53,247.59c8.55-8.05,7.59-21.2,14.02-30.47l7.96-30.52-7.01,14.48c-4.05,15.7-12.26,30.74-14.97,46.52ZM407.17,187.8c-1.65.15-3.53,2.09-4.65,3.3,1.27,5.14,6.58,1.28,8.98-1.01-1.03-1.17-2.72-2.43-4.33-2.29ZM354.52,404.58c-2.13.34-3.2-1.87-5.32-1.75-4.8.27-21.71,9.54-26.21,12.74-1.6,1.13-7.2,3.94-3.99,6,14.98-8.24,31.1-10.63,46.18-18.8,14.8-8.02,35.96-20.72,49.64-30.36,16.18-11.39,29.79-26.73,46.68-37.33l-2.51-2.53c-6.57,2.99-24.23,25.39-30.72,23.85-1-.24-1.94-1.8-3.27-1.82-.68,0-7.97,4.86-6.34-1.32.64-2.42,26.89-20.55,31.37-24.64,10.83-9.9,23.93-26.43,33.99-38.01,19.47-22.44,20.48-25.96,28.99-54.01,2.47-8.15,9.15-19.05,7.47-27.49-1.05-5.26-19.75-11.03-24.78-11.29-4.07-.21-7.58,1.93-11.7,1.86-5.23-.09-12.84-2.23-17.95-2.12-10.14.22-25.36,1.94-35.88,3.21-38.53,4.62-78.4,18.59-114.97-1.37-3.01-1.64-6.77-6.12-9.96-5.63-1.05.16-18.49,8.07-19.31,8.83-.46.43-.99.75-1.05,1.46l1.63,5.53-7.28-1.86c-5.94,4.37-6.84,10.96-15.75,10.34l-1.01,2.02c5.81,7.29-6.12,7.49-10.33,10.64-2.04,1.53-2.65,3.96-5.3,5.7-3.02,1.98-6.39,2-9.39,3.61-15.18,8.19-29.6,16.67-44.03,25.97-3.86,2.49-8.51,3.78-11.9,7.08,7.72,8.35,20.07,8.95,30.24,12.74,23.13,8.61,43.16,24.58,66.05,33.65,4.27-4.36,8-9.45,12.68-13.4,8.44-7.12,11.79-10.74,19.37-18.13,5.98-5.84,28.29-22.77,35.72-27.78,8.42-5.67,31.15-18.31,40.16-21.83,1.47-.58,2.39-2.34,3.46-2.64,2.69-.75,4.19,2.87,4.8,2.88.74,0,8.15-9.04,10.77-10.22,3.21-1.44,7.99-1.3,11.53-2.47,2.17-.71,13.31-6.1,14.19-5.3-3.21,9.72-14.14,11.14-22.01,15.48-14.47,7.98-62.25,30.73-69.97,41.02-5.66,7.53,1.68,10.52-.43,13.54-4.35,4.43-10.34-.02-12.91.17-4.45.34-16.89,13.1-15.53,18.06.9,3.27,8.84,4.86-1.54,8.65-2.28-.54-3.28-9.06-5.58-6.93s.8,10.1-.02,10.99l-4.51-1.82-5.47,6.35c-.41,1.99.44,1.21,1.26,1.69,2.76,1.62,5.93,2.57,8.64,4.37,4.47,2.97,18.8,14.24,22.14,17.86,2.23,2.42,3.09,6.29,5.71,8.57,5.37,4.67,17.7,7.39,22.49,11.94,1.1,1.05,2.1,2.49,1.32,4.05-1.5,2.49-8.37,2.17-11.06,1.97-22.68-1.68-39.4-23.11-57.01-34.96-1.62.02-4.01,11.42-5.02,13.96-3.34,8.42-10.64,21.18-19.48,24.03-.31,3.16,3.59,2.48,4.06,5.51.79,5.17-4.43,7.47-.25,16.18,6.54,13.64,24.1,8.27,35.98,4.59,13.4-4.16,32.17-16.62,44.74-18.27,3.18-.42-.48,2.68-.53,3.98,4.26.37,6.82-4.11,7.07-7.91,5.28,1.61,14.17-3.03,17.89-6.61,1.86-1.78,1.72-3.64,2.29-4.21.64-.64,3.19-.62,4.71-1.79,17.92-13.74,32.13-25.96,51.97-37.03,5.58-3.11,8.39-9.1,14.06-11.43,2.35,2.41-15.95,17.63-18.1,19.39-7.32,6-15.84,11.88-23.58,17.42-6.03,4.32-47.68,30.92-48.17,33.83-.24,1.42,1.51,2.7,1.52,3.85,0,1.74-3.29,4.44-.66,7.49ZM251.51,211.6c-8.28-.35-13.03,7.96-18.48,12-1.54,1.14-3.64,1.44-5.45,2.56-1.31.81-4.59,2.5-4.06,4.43l5.32-2.17,22.67-16.82ZM522.53,245.58c.72-4.8,2.64-10.18-1.51-13.98-1.81,0-4.02,12.28-5.01,14.97-1.7,4.62-13.51,23.27-12.06,26.02l3.6,3.44-5.03,9.55c10.64-12,21.21-25.75,23.99-41.99l-3.99,1.99ZM195.52,249.6c-7.76,3.26-17.06,7.72-23.91,12.58-1.61,1.15-4.38,1.91-4.08,4.41,9.95-3.88,20.19-9.66,27.99-16.99ZM185.51,262.6c-2.7-1.22-14.84,5.04-14.98,6.49-.33,3.59,9.54-2.21,10.3-2.68,1.31-.8,4-2.48,4.68-3.81ZM112.52,289.6c3.14-.41,11.93-6.15,10.98-9.47-2.24-2.29-6.33-2.36-9.45-2.59-21.42-1.58-72.57,2.9-90.46,14.63-3.15,2.06-6.31,4.52-8.04,7.93,1.49,1.64,3.68,2.52,5.74,3.21,17.85,5.98,35.35-2.54,51.8-2.78,3.01-.04,4.42,1.93,5.75,1.87,2.68-.12,6.98-4.95,9.41-5.58,4.11-1.06,10.23-.2,14.75-2.25l-6.48,4.03c-.06,1.73-.55,2.14,1.41,1.92,1.79-.19,23.81-6.3,19.57-9.94l-4.99-.99ZM500.51,288.59l-30.51,30.98c-.97,1.9-9.29,10.27-7.48,12.01,9.96.05,13.56-12.17,19.02-18.47,5.49-6.34,11.32-11.14,16.38-18.62,1.24-1.83,2.99-3.37,2.59-5.9ZM107.51,390.59c-.63-4.53,2.17-8.34,2.92-12.59.83-4.71.6-10.55,1.53-15.47,4.13-21.93,17.28-42.11,16.55-64.94-2.44.9-3.14,3.36-4.02,5.47-4.04,9.68-8.88,31.15-11.68,42.32-3.6,14.34-5.37,29.15-7.22,43.8-.25,1.98.23,1.44,1.93,1.42ZM467.52,318.58c1.71,1.77,9.89-9.1,5.5-8.97-1.35,1.02-6.44,7.99-5.5,8.97ZM117.52,387.58c6.69-.06,6.54-6.96,4.99-11.98l-4.99,11.98ZM310.52,411.6c.37,6.11,7.73-.64,10.79-1.72,4.24-1.49,8.79-2.04,13.19-3.81,1.28-.52,14.52-6.98,12.01-9.48-13.16,2.61-22.74,13.07-35.99,15.01Z"/>
  <path d="M417.51,354.59c.65,8.49-11.19,9.04-14.44,14.05-1.77,2.72-1.09,8.52-2.49,9.53-6.74-.55-9.92-.83-15.57,3.42-2.48,1.87-6.33,7.93-7.52,8.53-.87.44-3.57-.23-5.56.3-5,1.34-9.51,3.68-14.43,5.16,14.19-14.38,35.8-19.95,51.04-33.45,2.7-2.39,4.1-7.56,8.95-7.54Z"/>
  <path d="M469.52,298.6c1.18,1.14-11.34,13.75-14.99,11.98l14.99-11.98Z"/>
</svg>